PathFileType	3	(X/Y/Z)	F:\ViconData\AntennenMessung\Messung1\Session1\ID04.trc
DataRate	CameraRate	NumFrames	NumMarkers	Units	OrigDataRate	OrigDataStartFrame	OrigNumFrames
120.0	120.0	6	70	mm	120.0	289	1154	
Frame#	Time	Ashort			Along			Atop			A4			Bshort			Blong			Btop			B4			Cshort			Clong			Ctop			C4			Dshort			Dlong			Dtop			D4			Eshort			Elong			Etop			E4			Fshort			Flong			Ftop			F4			Gshort			Glong			Gtop			G4			Hshort			Hlong			Htop			H4			I1			I2			I3			I4			I5			WandAshort			WandAlong			WandAtop			WandA4			WandA15			WandBshort			WandB4			WandB5			WandBtop			WandBlong			WandCshort			WandClong			WandCtop			WandC4			WandC5			Acenter			Aantenna			Bcenter			Bantenna			Ccenter			Cantenna			Dcenter			Dantenna			Ecenter			Eantenna			Fcenter			Fantenna			Gcenter			Gantenna			Hcenter			Hantenna			Icenter			Iantenna			
		X1	Y1	Z1	X2	Y2	Z2	X3	Y3	Z3	X4	Y4	Z4	X5	Y5	Z5	X6	Y6	Z6	X7	Y7	Z7	X8	Y8	Z8	X9	Y9	Z9	X10	Y10	Z10	X11	Y11	Z11	X12	Y12	Z12	X13	Y13	Z13	X14	Y14	Z14	X15	Y15	Z15	X16	Y16	Z16	X17	Y17	Z17	X18	Y18	Z18	X19	Y19	Z19	X20	Y20	Z20	X21	Y21	Z21	X22	Y22	Z22	X23	Y23	Z23	X24	Y24	Z24	X25	Y25	Z25	X26	Y26	Z26	X27	Y27	Z27	X28	Y28	Z28	X29	Y29	Z29	X30	Y30	Z30	X31	Y31	Z31	X32	Y32	Z32	X33	Y33	Z33	X34	Y34	Z34	X35	Y35	Z35	X36	Y36	Z36	X37	Y37	Z37	X38	Y38	Z38	X39	Y39	Z39	X40	Y40	Z40	X41	Y41	Z41	X42	Y42	Z42	X43	Y43	Z43	X44	Y44	Z44	X45	Y45	Z45	X46	Y46	Z46	X47	Y47	Z47	X48	Y48	Z48	X49	Y49	Z49	X50	Y50	Z50	X51	Y51	Z51	X52	Y52	Z52	X53	Y53	Z53	X54	Y54	Z54	X55	Y55	Z55	X56	Y56	Z56	X57	Y57	Z57	X58	Y58	Z58	X59	Y59	Z59	X60	Y60	Z60	X61	Y61	Z61	X62	Y62	Z62	X63	Y63	Z63	X64	Y64	Z64	X65	Y65	Z65	X66	Y66	Z66	X67	Y67	Z67	X68	Y68	Z68	X69	Y69	Z69	X70	Y70	Z70	
289	2.4	-1038.2791	214.46523	-1644.2358	-1109.2985	203.37978	-1599.542	-1063.6028	172.65292	-1625.6038	-1054.177	262.11536	-1634.9913	-1353.0321	234.99484	1003.8167	-1281.3678	227.16513	1052.3999	-1323.1609	194.15694	1020.7803	-1284.7285	287.84705	1052.798	813.76196	187.65422	1209.4775	892.46436	178.36646	1179.2722	844.28278	145.5074	1198.121	860.39038	292.4064	1167.2776	1115.8054	209.75043	-1401.7336	1056.1934	194.02611	-1460.2156	1095.0354	162.24565	-1423.8781	1069.894	238.61069	-1425.958	-1204.5034	1685.9874	-1563.205	-1129.1324	1688.2194	-1606.1208	-1173.1562	1724.322	-1581.9102	-1133.5408	1581.0574	-1603.5601	-1239.7474	1699.2759	1119.2848	-1309.4609	1698.8253	1071.6578	-1270.3838	1736.1857	1096.6772	-1244.516	1594.7473	1106.5906	988.80872	1664.2583	1162.282	957.35956	1700.4092	1183.6467	922.07147	1662.1744	1214.7783	939.75665	1659.3081	1159.8824	999.18909	1668.5658	-1579.5415	1058.7384	1669.984	-1518.6888	1025.0431	1708.0178	-1551.1661	1059.2914	1672.1678	-1585.5685	-287.26535	140.10049	480.0206	-371.09393	146.55392	481.48459	-327.57034	105.81879	481.06912	-323.97693	145.01572	512.34229	-324.72559	141.35429	434.33444																																														-1068.9574	209.67662	-1624.9293	-1074.5388	248.26877	-1624.2263	-1321.8854	231.59187	1024.9319	-1320.5653	270.332	1029.2283	848.08203	183.60406	1196.3058	851.94775	222.36801	1194.4589	1088.7263	202.60756	-1428.2993	1082.738	240.91595	-1432.4956	-1171.9525	1686.9513	-1581.7393	-1170.6968	1647.9719	-1581.561	-1271.0016	1699.0737	1097.9325	-1271.6503	1660.1016	1099.2506	952.87256	1705.5668	1186.6947	972.83722	1733.6926	1168.4917	1026.4725	1669.2155	-1551.6606	1027.9082	1630.2451	-1552.1573	-324.71616	142.98358	480.67462	-321.72998	181.86691	480.26193
290	2.4083333	-1038.3051	214.49771	-1644.2672	-1109.2296	203.15381	-1599.6025	-1063.6428	172.62283	-1625.5823	-1054.1599	262.11792	-1635.0272	-1353.0795	234.97879	1003.919	-1281.354	227.27705	1052.2141	-1323.1615	194.06027	1020.9005	-1284.7198	287.82098	1052.8591	813.77753	187.70006	1209.4203	892.46771	178.30841	1179.2323	844.24384	145.49861	1198.1882	860.45135	292.61768	1167.1991	1115.8031	209.74516	-1401.7327	1056.2153	193.97903	-1460.1456	1095.0098	162.23103	-1423.8766	1069.8938	238.62225	-1425.969	-1204.4534	1685.9398	-1563.3485	-1129.1255	1688.2075	-1606.0864	-1173.1411	1724.3065	-1581.9121	-1133.5908	1581.0813	-1603.5836	-1239.708	1699.2189	1119.269	-1309.5712	1699.0074	1071.7297	-1270.3652	1736.1573	1096.6589	-1244.5046	1594.7992	1106.5986	988.7774	1664.2001	1162.2654	957.01147	1700.6954	1183.6232	921.99469	1662.1835	1214.7261	939.77148	1659.3035	1159.8677	999.18939	1668.5599	-1579.5363	1058.8643	1670.1487	-1518.6456	1025.0485	1708.0066	-1551.1569	1059.2827	1672.1663	-1585.5879	-287.25012	140.19038	479.94055	-371.37158	147.08594	481.30969	-327.61063	105.81871	481.05865	-323.99869	145.03545	512.33704	-324.68405	141.34802	434.30566																																														-1069.1046	209.5715	-1624.871	-1074.8068	248.14525	-1624.1287	-1321.8514	231.6256	1024.9457	-1320.5002	270.37814	1029.1188	848.05634	183.60889	1196.2699	851.93359	222.36662	1194.3188	1088.6866	202.57054	-1428.3143	1082.6827	240.87454	-1432.5282	-1171.947	1686.9182	-1581.7911	-1170.702	1647.9384	-1581.6652	-1271.1021	1699.1238	1097.9065	-1271.8774	1660.1536	1099.2192	952.79669	1705.5376	1186.4569	972.742	1733.6107	1168.1517	1026.5499	1669.2883	-1551.618	1028.0612	1630.3203	-1552.0823	-324.55078	143.24796	480.54764	-321.37347	182.11469	480.017
291	2.4166667	-1038.3264	214.4883	-1644.246	-1109.3157	203.37144	-1599.5435	-1063.5968	172.65509	-1625.6293	-1054.1613	262.07175	-1634.9784	-1352.9943	235.24278	1003.9122	-1281.3174	227.25168	1052.192	-1323.2244	194.03822	1020.938	-1284.7207	287.78738	1052.7997	813.75958	187.68831	1209.4896	892.10553	178.38736	1179.2749	844.56329	145.19855	1198.2679	860.45459	292.4993	1167.2561	1115.802	209.76097	-1401.7247	1056.2476	194.0107	-1460.136	1094.9996	162.21434	-1423.8689	1069.8496	238.55286	-1425.9733	-1204.5126	1685.99	-1563.2063	-1129.1351	1688.2467	-1606.1501	-1173.1139	1724.374	-1581.9813	-1133.5574	1581.0544	-1603.5385	-1239.7482	1699.2809	1119.292	-1309.551	1698.9786	1071.7157	-1270.3805	1736.1779	1096.6688	-1244.5844	1594.4707	1106.6597	988.7735	1664.2167	1162.249	957.01233	1700.624	1183.6368	922.09863	1662.0734	1214.6747	939.82147	1659.2598	1159.8643	999.1922	1668.5747	-1579.5387	1058.7339	1669.978	-1518.6896	1025.0419	1708.0114	-1551.1639	1059.2762	1672.1664	-1585.5879	-287.23749	140.14212	480.0368	-371.40527	147.06735	481.32382	-327.56256	105.8726	480.9949	-323.98077	145.0309	512.38873	-324.64285	141.33327	434.28635																																														-1068.9686	209.68973	-1624.9501	-1074.5662	248.27945	-1624.2424	-1321.7338	231.75761	1024.9684	-1320.2025	270.50699	1029.1088	848.30963	183.58662	1196.165	852.0921	222.34467	1194.042	1088.6866	202.58983	-1428.3193	1082.6975	240.89519	-1432.5417	-1171.8871	1686.9667	-1581.7936	-1170.6086	1647.9882	-1581.5981	-1271.083	1699.145	1097.9347	-1271.8223	1660.1748	1099.2667	952.81183	1705.4388	1186.4652	972.72119	1733.5498	1168.1791	1026.4675	1669.2174	-1551.6643	1027.8999	1630.2469	-1552.1671	-324.49658	143.20776	480.60651	-321.30487	182.07483	480.20221
292	2.425	-1038.3184	214.44536	-1644.2224	-1109.307	203.33685	-1599.528	-1063.5988	173.06429	-1625.7815	-1054.1531	262.1015	-1634.9895	-1352.934	235.45193	1003.8516	-1281.394	227.28902	1052.1836	-1323.1904	194.07166	1020.8386	-1284.6008	287.87485	1052.7576	813.84369	187.71582	1209.4866	892.3501	178.41891	1179.2103	844.04077	145.95767	1197.6918	860.39673	292.51318	1167.2194	1115.7842	209.73245	-1401.7268	1056.2338	194.02429	-1460.1724	1095.0249	162.25111	-1423.8925	1069.8971	238.60495	-1425.9244	-1204.4491	1685.943	-1563.3479	-1129.1482	1688.355	-1606.6438	-1173.1608	1724.3041	-1581.8981	-1133.5516	1581.0538	-1603.5271	-1239.7408	1699.2618	1119.2937	-1309.6045	1699.0475	1071.7506	-1270.3619	1736.1443	1096.6559	-1244.5806	1594.5371	1106.5431	988.79675	1664.2345	1162.2402	957.35126	1700.407	1183.6578	921.99304	1662.0729	1214.715	939.75836	1659.2893	1159.877	999.18665	1668.5634	-1579.5457	1058.735	1669.9755	-1518.6876	1025.0497	1708.016	-1551.1621	1059.2888	1672.1111	-1585.4695	-287.26569	140.12653	480.01691	-371.07611	146.51926	481.48221	-327.54852	105.84534	481.07141	-323.96689	145.04659	512.40436	-324.66861	141.30856	434.29944																																														-1068.839	209.6694	-1625.0066	-1074.3643	248.26735	-1624.1893	-1321.6694	231.88457	1024.9736	-1320.1115	270.6225	1029.2098	847.97888	183.67345	1196.3221	852.02655	222.43727	1194.9144	1088.7092	202.59067	-1428.2993	1082.7117	240.89883	-1432.4843	-1172.0201	1686.9816	-1581.9935	-1170.8289	1647.9999	-1582.0933	-1271.1213	1699.1654	1097.9387	-1271.922	1660.1971	1099.2908	952.89691	1705.5309	1186.6917	972.90417	1733.6655	1168.5493	1026.4753	1669.2104	-1551.6566	1027.9071	1630.2399	-1552.1532	-324.72275	142.9836	480.67175	-321.76404	181.86896	480.25336
293	2.4333333	-1038.2903	214.47768	-1644.2589	-1109.297	203.39508	-1599.5557	-1063.6365	172.62064	-1625.5862	-1054.189	262.09592	-1634.9932	-1353.0095	235.19283	1003.8384	-1281.376	227.14908	1052.3113	-1323.1682	194.08215	1020.8246	-1284.631	287.84488	1052.751	813.81372	187.71771	1209.6196	892.31909	178.30365	1179.2701	844.28461	145.4937	1198.1538	860.35779	292.38474	1167.1902	1115.8218	209.75139	-1401.7172	1056.1836	193.96112	-1460.1624	1094.9995	162.25516	-1423.9026	1069.8895	238.54633	-1425.9209	-1204.4537	1685.941	-1563.3478	-1129.1279	1688.2261	-1606.1263	-1173.1156	1724.3691	-1581.983	-1133.5544	1581.0634	-1603.5323	-1239.7474	1699.2567	1119.2928	-1309.5984	1699.0648	1071.7573	-1270.3837	1736.1783	1096.6691	-1244.553	1594.514	1106.6448	988.77814	1664.2031	1162.2477	957.32147	1700.417	1183.6399	922.59778	1662.0836	1214.8612	939.79724	1659.3008	1159.8687	999.18237	1668.5713	-1579.5549	1058.733	1669.9801	-1518.6829	1025.0535	1708.016	-1551.1644	1059.2885	1672.1595	-1585.5841	-287.27625	140.07498	480.11594	-371.64749	147.43164	481.18491	-327.58798	105.80353	481.09052	-323.9826	145.03145	512.37225	-324.71924	141.35535	434.3309																																														-1069.0035	209.68399	-1624.9227	-1074.592	248.27534	-1624.2322	-1321.7603	231.68385	1024.984	-1320.3101	270.42062	1029.2689	848.15436	183.5997	1196.3438	852.09027	222.35689	1194.5029	1088.6661	202.56145	-1428.3295	1082.6476	240.86392	-1432.5364	-1171.897	1686.9286	-1581.8372	-1170.6282	1647.9496	-1581.6853	-1271.1398	1699.1704	1097.9294	-1271.9359	1660.201	1099.2566	953.07965	1705.3002	1186.5244	972.89349	1733.3918	1168.105	1026.4747	1669.2169	-1551.6567	1027.9023	1630.2462	-1552.1515	-324.32446	143.30536	480.5853	-320.94363	182.15503	480.06201
294	2.4416667	-1038.3011	214.47537	-1644.239	-1109.3019	203.4137	-1599.5587	-1063.6573	173.06384	-1625.7306	-1054.1581	262.09454	-1634.9814	-1353.028	235.0135	1003.8923	-1281.3645	227.10587	1052.3104	-1323.1819	194.0175	1020.8979	-1284.566	287.875	1052.7419	813.83978	187.70036	1209.5497	892.36121	178.40118	1179.2314	844.55023	145.19742	1198.2242	860.43744	292.31036	1167.2401	1115.7897	209.73651	-1401.7286	1056.2312	194.0101	-1460.158	1095.0133	162.24831	-1423.8881	1069.8826	238.60895	-1425.978	-1204.4462	1685.9358	-1563.3403	-1129.1169	1688.1891	-1606.0956	-1173.1219	1724.3877	-1581.9805	-1133.5553	1581.0435	-1603.5129	-1239.7209	1699.2273	1119.2726	-1309.4323	1698.7793	1071.6433	-1270.4022	1736.2233	1096.6868	-1244.5093	1594.8453	1106.4496	988.8056	1664.2322	1162.2715	957.40973	1700.3502	1183.6587	922.46313	1662.033	1214.7528	939.78052	1659.292	1159.8903	999.17731	1668.5856	-1579.579	1058.7399	1669.9915	-1518.6775	1025.0548	1708.0095	-1551.1619	1059.2787	1672.1515	-1585.5762	-287.15109	140.2393	479.82874	-371.36197	147.02362	481.34308	-327.61276	105.77975	481.15573	-324.01474	145.0775	512.34546	-324.7244	141.37885	434.31845																																														-1068.8972	209.70859	-1624.985	-1074.4166	248.30804	-1624.1996	-1321.8025	231.56796	1024.9891	-1320.3795	270.31268	1029.2106	848.33087	183.61563	1196.2321	852.14526	222.37657	1194.2222	1088.6978	202.58292	-1428.3068	1082.7	240.88974	-1432.5033	-1171.9042	1686.9091	-1581.8102	-1170.6378	1647.9301	-1581.6334	-1270.9952	1699.0264	1097.9048	-1271.6169	1660.0521	1099.181	953.08765	1705.3223	1186.6029	972.98181	1733.4437	1168.3164	1026.4811	1669.23	-1551.6614	1027.9142	1630.2595	-1552.1635	-324.60519	143.25673	480.50229	-321.48596	182.12587	479.82455
